<svg width="24.000000" height="24.000000" viewBox="0 0 24 24" fill="none" xmlns="http://www.w3.org/2000/svg" xmlns:xlink="http://www.w3.org/1999/xlink">
	<desc>
			Created with Pixso.
	</desc>
	<defs/>
	<path id="Union" d="M6.35 6.96L5.48 18.89C5.41 19.75 6.1 20.5 6.97 20.5L17.02 20.5C17.89 20.5 18.58 19.75 18.51 18.89L17.64 6.96C17.62 6.7 17.4 6.5 17.14 6.5L15.99 6.5L15.99 9L14.49 9L14.49 6.5L9.5 6.5L9.5 9L8 9L8 6.5L6.85 6.5C6.59 6.5 6.37 6.7 6.35 6.96ZM8 5L6.85 5C5.81 5 4.94 5.8 4.86 6.85L3.98 18.77C3.85 20.51 5.23 22 6.97 22L17.02 22C18.76 22 20.14 20.51 20.01 18.78L19.13 6.85C19.05 5.8 18.18 5 17.14 5L15.99 5L15.99 4.75C15.99 3.23 14.76 2 13.24 2L10.75 2C9.23 2 8 3.23 8 4.75L8 5ZM9.5 5L9.5 4.75C9.5 4.05 10.05 3.5 10.75 3.5L13.24 3.5C13.93 3.5 14.49 4.05 14.49 4.75L14.49 5L9.5 5Z" fill="#E8E9EA" fill-opacity="1.000000" fill-rule="evenodd"/>
</svg>
