<svg width="18.000000" height="16.000000" viewBox="0 0 18 16" fill="none" xmlns="http://www.w3.org/2000/svg" xmlns:xlink="http://www.w3.org/1999/xlink">
	<desc>
			Created with Pixso.
	</desc>
	<defs/>
	<path id="Union" d="M9.75 3L9.75 0L8.25 0L8.25 3L9.75 3ZM15.48 4.49L16.98 1.99L15.7 1.22L14.2 3.72L15.48 4.49ZM1.01 1.99L2.51 4.49L3.79 3.72L2.29 1.22L1.01 1.99ZM1.67 10C3.33 12.11 5.98 13.5 8.99 13.5C12 13.5 14.66 12.11 16.31 10C15.28 8.67 13.85 7.63 12.18 7.04C12.38 7.48 12.5 7.97 12.5 8.5C12.5 10.43 10.93 12 9 12C7.06 12 5.5 10.43 5.5 8.5C5.5 7.97 5.61 7.48 5.81 7.04C4.14 7.63 2.71 8.67 1.67 10ZM17.86 9.57C15.97 6.81 12.7 5 9 5L8.99 5C5.29 5 2.02 6.81 0.13 9.57C-0.05 9.83 -0.05 10.16 0.13 10.42C2.02 13.18 5.29 15 8.99 15C12.7 15 15.97 13.18 17.86 10.42C18.04 10.16 18.04 9.83 17.86 9.57ZM9 10.5C10.1 10.5 11 9.6 11 8.5C11 7.39 10.1 6.5 9 6.5C7.89 6.5 7 7.39 7 8.5C7 9.6 7.89 10.5 9 10.5Z" fill="#E8E9EA" fill-opacity="1.000000" fill-rule="evenodd"/>
</svg>
